PathFileType	4	(X/Y/Z)	/Users/rkoike/Documents/python/sports2d/webcam_20250611_152632/webcam_20250611_152632_px_person02.trc
DataRate	CameraRate	NumFrames	NumMarkers	Units	OrigDataRate	OrigDataStartFrame	OrigNumFrames
30	30	6	22	m	30	1553	2485
Frame#	Time	Hip			RHip			RKnee			RAnkle			RBigToe			RSmallToe			RHeel			LHip			LKnee			LAnkle			LBigToe			LSmallToe			LHeel			Neck			Head			Nose			RShoulder			RElbow			RWrist			LShoulder			LElbow			LWrist			
		X1	Y1	Z1	X2	Y2	Z2	X3	Y3	Z3	X4	Y4	Z4	X5	Y5	Z5	X6	Y6	Z6	X7	Y7	Z7	X8	Y8	Z8	X9	Y9	Z9	X10	Y10	Z10	X11	Y11	Z11	X12	Y12	Z12	X13	Y13	Z13	X14	Y14	Z14	X15	Y15	Z15	X16	Y16	Z16	X17	Y17	Z17	X18	Y18	Z18	X19	Y19	Z19	X20	Y20	Z20	X21	Y21	Z21	X22	Y22	Z22
1553	51.78750670960815	709.7492147827253	477.38555608599705	0.0	1239.0659048995433	619.7287448202283	0.0	941.2800413774371	691.7663348764456	0.0	1082.7738726080947	687.4744942853968	0.0	1522.68017578125	-84.62500000000001	0.0	1229.7041015625	239.6630859375	0.0	1224.4208984375	717.7929687500001	0.0	1225.0184428934679	621.4491651177538	0.0	1180.1952441818578	676.8302725219668	0.0	1180.607230777852	583.5994988698811	0.0	629.8403795030381	611.4361839161979	0.0			0.0	989.3256765408441	702.8535339434749	0.0	761.2006199483526	57.19905915791775	0.0	1237.6225804995247	-85.94789026832014	0.0	1205.6094932338358	6.098849812245217	0.0	1239.2163845509208	12.246866642989893	0.0	1242.7541074218964	295.19767048690323	0.0	1168.5465540308962	562.7783314610746	0.0	1233.563351173315	10.526614132485646	0.0	1236.9474462178785	298.72741111866	0.0	1169.7675136782273	567.995629735772	0.0
1554	51.8208534621578	709.7492184778934	477.38555948760717	0.0	1239.3884153373494	619.8278591575595	0.0	941.280457943433	691.7662540869387	0.0	1082.7717815038272	687.4784045394504	0.0	1522.68017578125	-84.62500000000001	0.0	1229.7041015625	239.6630859375	0.0	1224.4208984375	717.7929687500001	0.0	1225.5550046595124	621.5533309418046	0.0	1180.6827643085521	676.8029611830026	0.0	1180.7009875834785	583.59402942615	0.0	629.8403795030381	611.4361839161979	0.0			0.0	989.3256765408443	702.8535339434749	0.0	761.2005722573238	57.19944777915848	0.0	1237.6916681830096	-86.10663160205279	0.0	1206.33445268881	5.571990333245528	0.0	1239.4040078987302	12.259761969057893	0.0	1242.8652321633442	295.322682722015	0.0	1168.64539244705	562.8682046590736	0.0	1234.1765180799457	10.534250923254323	0.0	1237.6215235159148	298.78302931489725	0.0	1170.3188544324175	568.0507189848965	0.0
1555	51.854200214707454	709.7492194138373	477.3855606312085	0.0	1239.4824429663286	619.8567665699942	0.0	941.2804769108745	691.7662489029428	0.0	1082.7712623226457	687.4793753807188	0.0	1522.68017578125	-84.62500000000001	0.0	1229.7041015625	239.6630859375	0.0	1224.4208984375	717.7929687500001	0.0	1225.7114528398654	621.5837252993153	0.0	1180.8249083329276	676.7950050182857	0.0	1180.7509688830185	583.5911136921547	0.0	629.8403795030381	611.4361839161979	0.0			0.0	989.3256765408443	702.8535339434749	0.0	761.2005762483345	57.19946337277027	0.0	1237.7118390435176	-86.15289324240759	0.0	1206.720925067336	5.29112409362193	0.0	1239.4587385644672	12.263500480687815	0.0	1242.897483949882	295.3593247336638	0.0	1168.6741214924007	562.8946458431402	0.0	1234.355285742635	10.536494387810688	0.0	1237.8181205691499	298.79930884320646	0.0	1170.4796634203076	568.0668027687182	0.0
1556	51.88754696725711	709.7492190361223	477.3855603877118	0.0	1239.4540361382458	619.8480405056983	0.0	941.280402349696	691.7662628071693	0.0	1082.7714799420578	687.4789684439625	0.0	1522.68017578125	-84.62500000000001	0.0	1229.7041015625	239.6630859375	0.0	1224.4208984375	717.7929687500001	0.0	1225.6641975010407	621.5745595414618	0.0	1180.7819703404184	676.7974129869068	0.0	1180.751079285844	583.5911072516404	0.0	629.8403795030381	611.4361839161979	0.0			0.0	989.3256765408441	702.8535339434749	0.0	761.2005870617751	57.19939303689153	0.0	1237.7057642747227	-86.13890413764707	0.0	1206.7217787394693	5.290503693057122	0.0	1239.4422234442757	12.262356855621684	0.0	1242.8876418975358	295.3483856002202	0.0	1168.6653835462862	562.8868180002275	0.0	1234.301277573385	10.535828005757608	0.0	1237.7587736361265	298.7944336578742	0.0	1170.4311255611592	568.0619588265946	0.0
1557	51.920893719806756	709.7492187132738	477.38556007379793	0.0	1239.4251269503877	619.8391554604775	0.0	941.2803710831763	691.7662689602695	0.0	1082.7716620222213	687.4786279637152	0.0	1522.68017578125	-84.62500000000001	0.0	1229.7041015625	239.6630859375	0.0	1224.4208984375	717.7929687500001	0.0	1225.6161003476896	621.565220850224	0.0	1180.7382695432248	676.7998607393001	0.0	1180.7413329589217	583.5916758182243	0.0	629.8403795030381	611.4361839161979	0.0			0.0	989.3256765408441	702.8535339434749	0.0	761.2005902761348	57.19936399238452	0.0	1237.6995697099164	-86.12467602437873	0.0	1206.6464168304708	5.34527246093636	0.0	1239.425403530909	12.261202195531238	0.0	1242.877689583179	295.33716820930414	0.0	1168.6565290374856	562.8787477986642	0.0	1234.2463145589772	10.535142453734299	0.0	1237.6983465275273	298.78944435598675	0.0	1170.3817005668006	568.0570193997744	0.0
1558	51.95424047235641	709.749218667935	477.3855600054787	0.0	1239.4200067173026	619.8375808935182	0.0	941.2803741295916	691.7662685113424	0.0	1082.7716866925266	687.4785818315534	0.0	1522.68017578125	-84.62500000000001	0.0	1229.7041015625	239.6630859375	0.0	1224.4208984375	717.7929687500001	0.0	1225.6075804706024	621.5635647475492	0.0	1180.730528835853	676.8002937327309	0.0	1180.7377098056875	583.5918871802968	0.0	629.8403795030381	611.4361839161979	0.0			0.0	989.3256765408443	702.8535339434749	0.0	761.2005893464872	57.19936703251424	0.0	1237.6984701838105	-86.12215763351612	0.0	1206.6184013794693	5.3656325042702635	0.0	1239.4224220324652	12.260999456773618	0.0	1242.8759391590504	295.3351651304693	0.0	1168.6549680812163	562.8772984528842	0.0	1234.2365798685628	10.535019611569712	0.0	1237.6876381185496	298.7885553102356	0.0	1170.3729411537397	568.0561426663149	0.0
